<svg xmlns="http://www.w3.org/2000/svg" viewBox="0 0 900 1040" width="900" height="1040"><line x1="399.34" y1="207.85" x2="146.04" y2="47.1" stroke="#EFCB72" stroke-width="4" stroke-linecap="round"/><line x1="405.41" y1="199.85" x2="182.47" y2="-0.89" stroke="#EFCB72" stroke-width="4" stroke-linecap="round"/><line x1="412.73" y1="192.98" x2="226.39" y2="-42.13" stroke="#EFCB72" stroke-width="4" stroke-linecap="round"/><line x1="421.09" y1="187.42" x2="276.57" y2="-75.47" stroke="#EFCB72" stroke-width="4" stroke-linecap="round"/><line x1="430.27" y1="183.34" x2="331.61" y2="-99.98" stroke="#EFCB72" stroke-width="4" stroke-linecap="round"/><line x1="439.99" y1="180.84" x2="389.96" y2="-114.96" stroke="#EFCB72" stroke-width="4" stroke-linecap="round"/><line x1="450" y1="180" x2="450" y2="-120" stroke="#EFCB72" stroke-width="4" stroke-linecap="round"/><line x1="460.01" y1="180.84" x2="510.04" y2="-114.96" stroke="#EFCB72" stroke-width="4" stroke-linecap="round"/><line x1="469.73" y1="183.34" x2="568.39" y2="-99.98" stroke="#EFCB72" stroke-width="4" stroke-linecap="round"/><line x1="478.91" y1="187.42" x2="623.43" y2="-75.47" stroke="#EFCB72" stroke-width="4" stroke-linecap="round"/><line x1="487.27" y1="192.98" x2="673.61" y2="-42.13" stroke="#EFCB72" stroke-width="4" stroke-linecap="round"/><line x1="494.59" y1="199.85" x2="717.53" y2="-0.89" stroke="#EFCB72" stroke-width="4" stroke-linecap="round"/><line x1="500.66" y1="207.85" x2="753.96" y2="47.1" stroke="#EFCB72" stroke-width="4" stroke-linecap="round"/><ellipse cx="450" cy="180" rx="95" ry="24" fill="none" stroke="#EFCB72" stroke-width="9"/><line x1="450" y1="130" x2="450" y2="210" stroke="#EFCB72" stroke-width="8" stroke-linecap="round"/><line x1="424" y1="154" x2="476" y2="154" stroke="#EFCB72" stroke-width="8" stroke-linecap="round"/><path d="M 300,820 C 300,690 390,630 390,560 C 390,370 110,460 110,250" fill="none" stroke="#F7FBFF" stroke-width="9" stroke-linecap="round"/><path d="M 330,820 C 330,690 402,630 402,560 C 402,370 178,460 178,250" fill="none" stroke="#F7FBFF" stroke-width="9" stroke-linecap="round"/><path d="M 360,820 C 360,690 414,630 414,560 C 414,370 246,460 246,250" fill="none" stroke="#F7FBFF" stroke-width="9" stroke-linecap="round"/><path d="M 390,820 C 390,690 426,630 426,560 C 426,370 314,460 314,250" fill="none" stroke="#F7FBFF" stroke-width="9" stroke-linecap="round"/><path d="M 420,820 C 420,690 438,630 438,560 C 438,370 382,460 382,250" fill="none" stroke="#F7FBFF" stroke-width="9" stroke-linecap="round"/><path d="M 450,820 C 450,690 450,630 450,560 C 450,370 450,460 450,250" fill="none" stroke="#F7FBFF" stroke-width="9" stroke-linecap="round"/><path d="M 480,820 C 480,690 462,630 462,560 C 462,370 518,460 518,250" fill="none" stroke="#F7FBFF" stroke-width="9" stroke-linecap="round"/><path d="M 510,820 C 510,690 474,630 474,560 C 474,370 586,460 586,250" fill="none" stroke="#F7FBFF" stroke-width="9" stroke-linecap="round"/><path d="M 540,820 C 540,690 486,630 486,560 C 486,370 654,460 654,250" fill="none" stroke="#F7FBFF" stroke-width="9" stroke-linecap="round"/><path d="M 570,820 C 570,690 498,630 498,560 C 498,370 722,460 722,250" fill="none" stroke="#F7FBFF" stroke-width="9" stroke-linecap="round"/><path d="M 600,820 C 600,690 510,630 510,560 C 510,370 790,460 790,250" fill="none" stroke="#F7FBFF" stroke-width="9" stroke-linecap="round"/><ellipse cx="450" cy="250" rx="340" ry="40" fill="none" stroke="#F7FBFF" stroke-width="9"/><ellipse cx="450" cy="820" rx="150" ry="22" fill="none" stroke="#F7FBFF" stroke-width="9"/><g transform="translate(180,778) scale(2.4)"><path d="M14,58 C2,58 0,40 14,38 C9,20 33,12 45,26 C53,8 84,10 84,32 C100,30 101,56 86,58 Z" fill="none" stroke="#F7FBFF" stroke-width="3.75" stroke-linejoin="round"/></g><g transform="translate(480,778) scale(2.4)"><path d="M14,58 C2,58 0,40 14,38 C9,20 33,12 45,26 C53,8 84,10 84,32 C100,30 101,56 86,58 Z" fill="none" stroke="#F7FBFF" stroke-width="3.75" stroke-linejoin="round"/></g><g transform="translate(300,790) scale(3)"><path d="M14,58 C2,58 0,40 14,38 C9,20 33,12 45,26 C53,8 84,10 84,32 C100,30 101,56 86,58 Z" fill="none" stroke="#F7FBFF" stroke-width="3" stroke-linejoin="round"/></g></svg>