<svg xmlns="http://www.w3.org/2000/svg" viewBox="0 0 600 600" width="600" height="600"><ellipse cx="300" cy="175" rx="150" ry="40" fill="none" stroke="#B98722" stroke-width="14"/><g transform="translate(120,222) scale(3.6)"><path d="M14,58 C2,58 0,40 14,38 C9,20 33,12 45,26 C53,8 84,10 84,32 C100,30 101,56 86,58 Z" fill="none" stroke="#0B2360" stroke-width="4.44" stroke-linejoin="round"/></g><path d="M 150,134 C 151.92,144.88 155.12,148.08 166,150 C 155.12,151.92 151.92,155.12 150,166 C 148.08,155.12 144.88,151.92 134,150 C 144.88,148.08 148.08,144.88 150,134 Z" fill="#B98722"/><path d="M 470,198 C 471.44,206.16 473.84,208.56 482,210 C 473.84,211.44 471.44,213.84 470,222 C 468.56,213.84 466.16,211.44 458,210 C 466.16,208.56 468.56,206.16 470,198 Z" fill="#B98722"/></svg>