<svg xmlns="http://www.w3.org/2000/svg" viewBox="0 0 900 1040" width="900" height="1040"><line x1="332.13" y1="337.51" x2="-11.68" y2="271.93" stroke="#B98722" stroke-width="4" stroke-linecap="round"/><line x1="335.04" y1="325.58" x2="-0.26" y2="225.2" stroke="#B98722" stroke-width="4" stroke-linecap="round"/><line x1="339.16" y1="314.01" x2="15.88" y2="179.89" stroke="#B98722" stroke-width="4" stroke-linecap="round"/><line x1="344.44" y1="302.93" x2="36.57" y2="136.46" stroke="#B98722" stroke-width="4" stroke-linecap="round"/><line x1="350.83" y1="292.43" x2="61.58" y2="95.37" stroke="#B98722" stroke-width="4" stroke-linecap="round"/><line x1="358.25" y1="282.65" x2="90.66" y2="57.05" stroke="#B98722" stroke-width="4" stroke-linecap="round"/><line x1="366.64" y1="273.68" x2="123.51" y2="21.91" stroke="#B98722" stroke-width="4" stroke-linecap="round"/><line x1="375.9" y1="265.61" x2="159.78" y2="-9.69" stroke="#B98722" stroke-width="4" stroke-linecap="round"/><line x1="385.94" y1="258.53" x2="199.09" y2="-37.42" stroke="#B98722" stroke-width="4" stroke-linecap="round"/><line x1="396.64" y1="252.51" x2="241.02" y2="-60.98" stroke="#B98722" stroke-width="4" stroke-linecap="round"/><line x1="407.91" y1="247.62" x2="285.15" y2="-80.14" stroke="#B98722" stroke-width="4" stroke-linecap="round"/><line x1="419.62" y1="243.91" x2="331" y2="-94.69" stroke="#B98722" stroke-width="4" stroke-linecap="round"/><line x1="431.64" y1="241.41" x2="378.1" y2="-104.47" stroke="#B98722" stroke-width="4" stroke-linecap="round"/><line x1="443.86" y1="240.16" x2="425.95" y2="-109.38" stroke="#B98722" stroke-width="4" stroke-linecap="round"/><line x1="456.14" y1="240.16" x2="474.05" y2="-109.38" stroke="#B98722" stroke-width="4" stroke-linecap="round"/><line x1="468.36" y1="241.41" x2="521.9" y2="-104.47" stroke="#B98722" stroke-width="4" stroke-linecap="round"/><line x1="480.38" y1="243.91" x2="569" y2="-94.69" stroke="#B98722" stroke-width="4" stroke-linecap="round"/><line x1="492.09" y1="247.62" x2="614.85" y2="-80.14" stroke="#B98722" stroke-width="4" stroke-linecap="round"/><line x1="503.36" y1="252.51" x2="658.98" y2="-60.98" stroke="#B98722" stroke-width="4" stroke-linecap="round"/><line x1="514.06" y1="258.53" x2="700.91" y2="-37.42" stroke="#B98722" stroke-width="4" stroke-linecap="round"/><line x1="524.1" y1="265.61" x2="740.22" y2="-9.69" stroke="#B98722" stroke-width="4" stroke-linecap="round"/><line x1="533.36" y1="273.68" x2="776.49" y2="21.91" stroke="#B98722" stroke-width="4" stroke-linecap="round"/><line x1="541.75" y1="282.65" x2="809.34" y2="57.05" stroke="#B98722" stroke-width="4" stroke-linecap="round"/><line x1="549.17" y1="292.43" x2="838.42" y2="95.37" stroke="#B98722" stroke-width="4" stroke-linecap="round"/><line x1="555.56" y1="302.93" x2="863.43" y2="136.46" stroke="#B98722" stroke-width="4" stroke-linecap="round"/><line x1="560.84" y1="314.01" x2="884.12" y2="179.89" stroke="#B98722" stroke-width="4" stroke-linecap="round"/><line x1="564.96" y1="325.58" x2="900.26" y2="225.2" stroke="#B98722" stroke-width="4" stroke-linecap="round"/><line x1="567.87" y1="337.51" x2="911.68" y2="271.93" stroke="#B98722" stroke-width="4" stroke-linecap="round"/><circle cx="450" cy="320" r="78" fill="none" stroke="#B98722" stroke-width="9"/><circle cx="450" cy="320" r="34" fill="#0B2360"/><path d="M 200,376 L 700,376 L 700,410 L 484,420 L 416,420 L 200,410 Z" fill="#0B2360"/><path d="M 416,412 L 484,412 L 582,790 C 510,815 390,815 318,790 Z" fill="#0B2360"/><line x1="450" y1="430" x2="450" y2="788" stroke="#EFEAE0" stroke-width="5" opacity="0.5"/><g transform="translate(205,731) scale(2.3)"><path d="M14,58 C2,58 0,40 14,38 C9,20 33,12 45,26 C53,8 84,10 84,32 C100,30 101,56 86,58 Z" fill="none" stroke="#0B2360" stroke-width="3.91" stroke-linejoin="round"/></g><g transform="translate(465,731) scale(2.3)"><path d="M14,58 C2,58 0,40 14,38 C9,20 33,12 45,26 C53,8 84,10 84,32 C100,30 101,56 86,58 Z" fill="none" stroke="#0B2360" stroke-width="3.91" stroke-linejoin="round"/></g><g transform="translate(300,740) scale(3)"><path d="M14,58 C2,58 0,40 14,38 C9,20 33,12 45,26 C53,8 84,10 84,32 C100,30 101,56 86,58 Z" fill="none" stroke="#0B2360" stroke-width="3" stroke-linejoin="round"/></g></svg>