<svg xmlns="http://www.w3.org/2000/svg" viewBox="0 0 900 1040" width="900" height="1040"><circle cx="450" cy="320" r="78" fill="none" stroke="#B98722" stroke-width="9"/><circle cx="450" cy="320" r="34" fill="#0B2360"/><path d="M 200,376 L 700,376 L 700,410 L 484,420 L 416,420 L 200,410 Z" fill="#0B2360"/><path d="M 416,412 L 484,412 L 582,790 C 510,815 390,815 318,790 Z" fill="#0B2360"/><line x1="450" y1="430" x2="450" y2="788" stroke="#EFEAE0" stroke-width="5" opacity="0.5"/><g transform="translate(205,731) scale(2.3)"><path d="M14,58 C2,58 0,40 14,38 C9,20 33,12 45,26 C53,8 84,10 84,32 C100,30 101,56 86,58 Z" fill="none" stroke="#0B2360" stroke-width="3.91" stroke-linejoin="round"/></g><g transform="translate(465,731) scale(2.3)"><path d="M14,58 C2,58 0,40 14,38 C9,20 33,12 45,26 C53,8 84,10 84,32 C100,30 101,56 86,58 Z" fill="none" stroke="#0B2360" stroke-width="3.91" stroke-linejoin="round"/></g><g transform="translate(300,740) scale(3)"><path d="M14,58 C2,58 0,40 14,38 C9,20 33,12 45,26 C53,8 84,10 84,32 C100,30 101,56 86,58 Z" fill="none" stroke="#0B2360" stroke-width="3" stroke-linejoin="round"/></g></svg>