<svg xmlns="http://www.w3.org/2000/svg" viewBox="0 0 760 1040" width="760" height="1040"><rect x="80" y="90" width="100" height="95.56" fill="#2A5DA8"/><rect x="180" y="90" width="100" height="95.56" fill="#143B86"/><rect x="280" y="90" width="100" height="95.56" fill="#0B2360"/><rect x="380" y="90" width="100" height="95.56" fill="#0B2360"/><rect x="480" y="90" width="100" height="95.56" fill="#143B86"/><rect x="580" y="90" width="100" height="95.56" fill="#2A5DA8"/><rect x="80" y="185.56" width="100" height="95.56" fill="#2A5DA8"/><rect x="180" y="185.56" width="100" height="95.56" fill="#143B86"/><rect x="280" y="185.56" width="100" height="95.56" fill="#143B86"/><rect x="380" y="185.56" width="100" height="95.56" fill="#143B86"/><rect x="480" y="185.56" width="100" height="95.56" fill="#143B86"/><rect x="580" y="185.56" width="100" height="95.56" fill="#2A5DA8"/><rect x="80" y="281.11" width="100" height="95.56" fill="#5C8DC6"/><rect x="180" y="281.11" width="100" height="95.56" fill="#2A5DA8"/><rect x="280" y="281.11" width="100" height="95.56" fill="#143B86"/><rect x="380" y="281.11" width="100" height="95.56" fill="#143B86"/><rect x="480" y="281.11" width="100" height="95.56" fill="#2A5DA8"/><rect x="580" y="281.11" width="100" height="95.56" fill="#5C8DC6"/><rect x="80" y="376.67" width="100" height="95.56" fill="#5C8DC6"/><rect x="180" y="376.67" width="100" height="95.56" fill="#2A5DA8"/><rect x="280" y="376.67" width="100" height="95.56" fill="#143B86"/><rect x="380" y="376.67" width="100" height="95.56" fill="#143B86"/><rect x="480" y="376.67" width="100" height="95.56" fill="#2A5DA8"/><rect x="580" y="376.67" width="100" height="95.56" fill="#5C8DC6"/><rect x="80" y="472.22" width="100" height="95.56" fill="#5C8DC6"/><rect x="180" y="472.22" width="100" height="95.56" fill="#2A5DA8"/><rect x="280" y="472.22" width="100" height="95.56" fill="#143B86"/><rect x="380" y="472.22" width="100" height="95.56" fill="#143B86"/><rect x="480" y="472.22" width="100" height="95.56" fill="#2A5DA8"/><rect x="580" y="472.22" width="100" height="95.56" fill="#5C8DC6"/><rect x="80" y="567.78" width="100" height="95.56" fill="#5C8DC6"/><rect x="180" y="567.78" width="100" height="95.56" fill="#2A5DA8"/><rect x="280" y="567.78" width="100" height="95.56" fill="#2A5DA8"/><rect x="380" y="567.78" width="100" height="95.56" fill="#2A5DA8"/><rect x="480" y="567.78" width="100" height="95.56" fill="#2A5DA8"/><rect x="580" y="567.78" width="100" height="95.56" fill="#5C8DC6"/><rect x="80" y="663.33" width="100" height="95.56" fill="#9DC6EE"/><rect x="180" y="663.33" width="100" height="95.56" fill="#5C8DC6"/><rect x="280" y="663.33" width="100" height="95.56" fill="#2A5DA8"/><rect x="380" y="663.33" width="100" height="95.56" fill="#2A5DA8"/><rect x="480" y="663.33" width="100" height="95.56" fill="#5C8DC6"/><rect x="580" y="663.33" width="100" height="95.56" fill="#9DC6EE"/><rect x="80" y="758.89" width="100" height="95.56" fill="#9DC6EE"/><rect x="180" y="758.89" width="100" height="95.56" fill="#5C8DC6"/><rect x="280" y="758.89" width="100" height="95.56" fill="#2A5DA8"/><rect x="380" y="758.89" width="100" height="95.56" fill="#2A5DA8"/><rect x="480" y="758.89" width="100" height="95.56" fill="#5C8DC6"/><rect x="580" y="758.89" width="100" height="95.56" fill="#9DC6EE"/><rect x="80" y="854.44" width="100" height="95.56" fill="#9DC6EE"/><rect x="180" y="854.44" width="100" height="95.56" fill="#5C8DC6"/><rect x="280" y="854.44" width="100" height="95.56" fill="#2A5DA8"/><rect x="380" y="854.44" width="100" height="95.56" fill="#2A5DA8"/><rect x="480" y="854.44" width="100" height="95.56" fill="#5C8DC6"/><rect x="580" y="854.44" width="100" height="95.56" fill="#9DC6EE"/><line x1="80" y1="90" x2="80" y2="950" stroke="#F7FBFF" stroke-width="7"/><line x1="180" y1="90" x2="180" y2="950" stroke="#F7FBFF" stroke-width="7"/><line x1="280" y1="90" x2="280" y2="950" stroke="#F7FBFF" stroke-width="7"/><line x1="380" y1="90" x2="380" y2="950" stroke="#F7FBFF" stroke-width="7"/><line x1="480" y1="90" x2="480" y2="950" stroke="#F7FBFF" stroke-width="7"/><line x1="580" y1="90" x2="580" y2="950" stroke="#F7FBFF" stroke-width="7"/><line x1="680" y1="90" x2="680" y2="950" stroke="#F7FBFF" stroke-width="7"/><line x1="80" y1="90" x2="680" y2="90" stroke="#F7FBFF" stroke-width="7"/><line x1="80" y1="185.56" x2="680" y2="185.56" stroke="#F7FBFF" stroke-width="7"/><line x1="80" y1="281.11" x2="680" y2="281.11" stroke="#F7FBFF" stroke-width="7"/><line x1="80" y1="376.67" x2="680" y2="376.67" stroke="#F7FBFF" stroke-width="7"/><line x1="80" y1="472.22" x2="680" y2="472.22" stroke="#F7FBFF" stroke-width="7"/><line x1="80" y1="567.78" x2="680" y2="567.78" stroke="#F7FBFF" stroke-width="7"/><line x1="80" y1="663.33" x2="680" y2="663.33" stroke="#F7FBFF" stroke-width="7"/><line x1="80" y1="758.89" x2="680" y2="758.89" stroke="#F7FBFF" stroke-width="7"/><line x1="80" y1="854.44" x2="680" y2="854.44" stroke="#F7FBFF" stroke-width="7"/><line x1="80" y1="950" x2="680" y2="950" stroke="#F7FBFF" stroke-width="7"/><rect x="80" y="90" width="600" height="860" fill="none" stroke="#F7FBFF" stroke-width="12"/><line x1="410" y1="520" x2="530" y2="520" stroke="#EFCB72" stroke-width="3" stroke-linecap="round"/><line x1="407.72" y1="531.48" x2="518.58" y2="577.4" stroke="#EFCB72" stroke-width="3" stroke-linecap="round"/><line x1="401.21" y1="541.21" x2="486.07" y2="626.07" stroke="#EFCB72" stroke-width="3" stroke-linecap="round"/><line x1="391.48" y1="547.72" x2="437.4" y2="658.58" stroke="#EFCB72" stroke-width="3" stroke-linecap="round"/><line x1="380" y1="550" x2="380" y2="670" stroke="#EFCB72" stroke-width="3" stroke-linecap="round"/><line x1="368.52" y1="547.72" x2="322.6" y2="658.58" stroke="#EFCB72" stroke-width="3" stroke-linecap="round"/><line x1="358.79" y1="541.21" x2="273.93" y2="626.07" stroke="#EFCB72" stroke-width="3" stroke-linecap="round"/><line x1="352.28" y1="531.48" x2="241.42" y2="577.4" stroke="#EFCB72" stroke-width="3" stroke-linecap="round"/><line x1="350" y1="520" x2="230" y2="520" stroke="#EFCB72" stroke-width="3" stroke-linecap="round"/><line x1="352.28" y1="508.52" x2="241.42" y2="462.6" stroke="#EFCB72" stroke-width="3" stroke-linecap="round"/><line x1="358.79" y1="498.79" x2="273.93" y2="413.93" stroke="#EFCB72" stroke-width="3" stroke-linecap="round"/><line x1="368.52" y1="492.28" x2="322.6" y2="381.42" stroke="#EFCB72" stroke-width="3" stroke-linecap="round"/><line x1="380" y1="490" x2="380" y2="370" stroke="#EFCB72" stroke-width="3" stroke-linecap="round"/><line x1="391.48" y1="492.28" x2="437.4" y2="381.42" stroke="#EFCB72" stroke-width="3" stroke-linecap="round"/><line x1="401.21" y1="498.79" x2="486.07" y2="413.93" stroke="#EFCB72" stroke-width="3" stroke-linecap="round"/><line x1="407.72" y1="508.52" x2="518.58" y2="462.6" stroke="#EFCB72" stroke-width="3" stroke-linecap="round"/><line x1="380" y1="400" x2="380" y2="640" stroke="#EFCB72" stroke-width="14" stroke-linecap="round"/><line x1="310" y1="480" x2="450" y2="480" stroke="#EFCB72" stroke-width="14" stroke-linecap="round"/><path d="M 380,454 C 383.12,471.68 388.32,476.88 406,480 C 388.32,483.12 383.12,488.32 380,506 C 376.88,488.32 371.68,483.12 354,480 C 371.68,476.88 376.88,471.68 380,454 Z" fill="#EFCB72"/></svg>